<?xml version="1.0" encoding="UTF-8"?>
<!-- data-source: season-aggregate.json#Teams[].Weekly[].ScoreRank -->
<!-- generator: SeasonChartRenderer -->
<svg xmlns="http://www.w3.org/2000/svg" viewBox="0 0 880 520" font-family="-apple-system, Segoe UI, Helvetica, Arial, sans-serif" font-size="12">
  <rect x="0" y="0" width="880" height="520" fill="#ffffff"/>
  <text x="440" y="22" text-anchor="middle" font-size="14" font-weight="600">Weekly score rank — 2025 The League</text>
  <line x1="64" y1="64" x2="64" y2="376" stroke="#333" stroke-width="1"/>
  <line x1="64" y1="376" x2="848" y2="376" stroke="#333" stroke-width="1"/>
  <text x="16" y="220" text-anchor="middle" transform="rotate(-90 16 220)">Score rank (1 = highest scorer)</text>
  <text x="456" y="412" text-anchor="middle">Week</text>
  <line x1="64" y1="83.5" x2="848" y2="83.5" stroke="#eee" stroke-width="1"/>
  <text x="56" y="87.5" text-anchor="end" fill="#555">1</text>
  <line x1="64" y1="122.5" x2="848" y2="122.5" stroke="#eee" stroke-width="1"/>
  <text x="56" y="126.5" text-anchor="end" fill="#555">2</text>
  <line x1="64" y1="161.5" x2="848" y2="161.5" stroke="#eee" stroke-width="1"/>
  <text x="56" y="165.5" text-anchor="end" fill="#555">3</text>
  <line x1="64" y1="200.5" x2="848" y2="200.5" stroke="#eee" stroke-width="1"/>
  <text x="56" y="204.5" text-anchor="end" fill="#555">4</text>
  <line x1="64" y1="239.5" x2="848" y2="239.5" stroke="#eee" stroke-width="1"/>
  <text x="56" y="243.5" text-anchor="end" fill="#555">5</text>
  <line x1="64" y1="278.5" x2="848" y2="278.5" stroke="#eee" stroke-width="1"/>
  <text x="56" y="282.5" text-anchor="end" fill="#555">6</text>
  <line x1="64" y1="317.5" x2="848" y2="317.5" stroke="#eee" stroke-width="1"/>
  <text x="56" y="321.5" text-anchor="end" fill="#555">7</text>
  <line x1="64" y1="356.5" x2="848" y2="356.5" stroke="#eee" stroke-width="1"/>
  <text x="56" y="360.5" text-anchor="end" fill="#555">8</text>
  <line x1="87.06" y1="64" x2="87.06" y2="376" stroke="#f5f5f5" stroke-width="1"/>
  <text x="87.06" y="392" text-anchor="middle" fill="#555">1</text>
  <line x1="133.18" y1="64" x2="133.18" y2="376" stroke="#f5f5f5" stroke-width="1"/>
  <text x="133.18" y="392" text-anchor="middle" fill="#555">2</text>
  <line x1="179.29" y1="64" x2="179.29" y2="376" stroke="#f5f5f5" stroke-width="1"/>
  <text x="179.29" y="392" text-anchor="middle" fill="#555">3</text>
  <line x1="225.41" y1="64" x2="225.41" y2="376" stroke="#f5f5f5" stroke-width="1"/>
  <text x="225.41" y="392" text-anchor="middle" fill="#555">4</text>
  <line x1="271.53" y1="64" x2="271.53" y2="376" stroke="#f5f5f5" stroke-width="1"/>
  <text x="271.53" y="392" text-anchor="middle" fill="#555">5</text>
  <line x1="317.65" y1="64" x2="317.65" y2="376" stroke="#f5f5f5" stroke-width="1"/>
  <text x="317.65" y="392" text-anchor="middle" fill="#555">6</text>
  <line x1="363.76" y1="64" x2="363.76" y2="376" stroke="#f5f5f5" stroke-width="1"/>
  <text x="363.76" y="392" text-anchor="middle" fill="#555">7</text>
  <line x1="409.88" y1="64" x2="409.88" y2="376" stroke="#f5f5f5" stroke-width="1"/>
  <text x="409.88" y="392" text-anchor="middle" fill="#555">8</text>
  <line x1="456" y1="64" x2="456" y2="376" stroke="#f5f5f5" stroke-width="1"/>
  <text x="456" y="392" text-anchor="middle" fill="#555">9</text>
  <line x1="502.12" y1="64" x2="502.12" y2="376" stroke="#f5f5f5" stroke-width="1"/>
  <text x="502.12" y="392" text-anchor="middle" fill="#555">10</text>
  <line x1="548.24" y1="64" x2="548.24" y2="376" stroke="#f5f5f5" stroke-width="1"/>
  <text x="548.24" y="392" text-anchor="middle" fill="#555">11</text>
  <line x1="594.35" y1="64" x2="594.35" y2="376" stroke="#f5f5f5" stroke-width="1"/>
  <text x="594.35" y="392" text-anchor="middle" fill="#555">12</text>
  <line x1="640.47" y1="64" x2="640.47" y2="376" stroke="#f5f5f5" stroke-width="1"/>
  <text x="640.47" y="392" text-anchor="middle" fill="#555">13</text>
  <line x1="686.59" y1="64" x2="686.59" y2="376" stroke="#f5f5f5" stroke-width="1"/>
  <text x="686.59" y="392" text-anchor="middle" fill="#555">14</text>
  <line x1="732.71" y1="64" x2="732.71" y2="376" stroke="#f5f5f5" stroke-width="1"/>
  <text x="732.71" y="392" text-anchor="middle" fill="#555">15</text>
  <line x1="778.82" y1="64" x2="778.82" y2="376" stroke="#f5f5f5" stroke-width="1"/>
  <text x="778.82" y="392" text-anchor="middle" fill="#555">16</text>
  <line x1="824.94" y1="64" x2="824.94" y2="376" stroke="#f5f5f5" stroke-width="1"/>
  <text x="824.94" y="392" text-anchor="middle" fill="#555">17</text>
  <polyline fill="none" stroke="#1f77b4" stroke-width="2.25" stroke-linejoin="round" stroke-linecap="round" points="87.06,83.5 133.18,356.5 179.29,122.5 225.41,200.5 271.53,317.5 317.65,122.5 363.76,356.5 409.88,161.5 456,356.5 502.12,83.5 548.24,317.5 594.35,239.5 640.47,200.5 686.59,278.5 732.71,317.5 778.82,317.5 824.94,239.5"/>
  <circle cx="87.06" cy="83.5" r="2.5" fill="#1f77b4"/>
  <circle cx="133.18" cy="356.5" r="2.5" fill="#1f77b4"/>
  <circle cx="179.29" cy="122.5" r="2.5" fill="#1f77b4"/>
  <circle cx="225.41" cy="200.5" r="2.5" fill="#1f77b4"/>
  <circle cx="271.53" cy="317.5" r="2.5" fill="#1f77b4"/>
  <circle cx="317.65" cy="122.5" r="2.5" fill="#1f77b4"/>
  <circle cx="363.76" cy="356.5" r="2.5" fill="#1f77b4"/>
  <circle cx="409.88" cy="161.5" r="2.5" fill="#1f77b4"/>
  <circle cx="456" cy="356.5" r="2.5" fill="#1f77b4"/>
  <circle cx="502.12" cy="83.5" r="2.5" fill="#1f77b4"/>
  <circle cx="548.24" cy="317.5" r="2.5" fill="#1f77b4"/>
  <circle cx="594.35" cy="239.5" r="2.5" fill="#1f77b4"/>
  <circle cx="640.47" cy="200.5" r="2.5" fill="#1f77b4"/>
  <circle cx="686.59" cy="278.5" r="2.5" fill="#1f77b4"/>
  <circle cx="732.71" cy="317.5" r="2.5" fill="#1f77b4"/>
  <circle cx="778.82" cy="317.5" r="2.5" fill="#1f77b4"/>
  <circle cx="824.94" cy="239.5" r="2.5" fill="#1f77b4"/>
  <polyline fill="none" stroke="#d62728" stroke-width="2.25" stroke-linejoin="round" stroke-linecap="round" points="87.06,278.5 133.18,278.5 179.29,200.5 225.41,278.5 271.53,200.5 317.65,356.5 363.76,200.5 409.88,200.5 456,161.5 502.12,317.5 548.24,278.5 594.35,356.5 640.47,239.5 686.59,239.5 732.71,200.5 778.82,200.5 824.94,278.5"/>
  <circle cx="87.06" cy="278.5" r="2.5" fill="#d62728"/>
  <circle cx="133.18" cy="278.5" r="2.5" fill="#d62728"/>
  <circle cx="179.29" cy="200.5" r="2.5" fill="#d62728"/>
  <circle cx="225.41" cy="278.5" r="2.5" fill="#d62728"/>
  <circle cx="271.53" cy="200.5" r="2.5" fill="#d62728"/>
  <circle cx="317.65" cy="356.5" r="2.5" fill="#d62728"/>
  <circle cx="363.76" cy="200.5" r="2.5" fill="#d62728"/>
  <circle cx="409.88" cy="200.5" r="2.5" fill="#d62728"/>
  <circle cx="456" cy="161.5" r="2.5" fill="#d62728"/>
  <circle cx="502.12" cy="317.5" r="2.5" fill="#d62728"/>
  <circle cx="548.24" cy="278.5" r="2.5" fill="#d62728"/>
  <circle cx="594.35" cy="356.5" r="2.5" fill="#d62728"/>
  <circle cx="640.47" cy="239.5" r="2.5" fill="#d62728"/>
  <circle cx="686.59" cy="239.5" r="2.5" fill="#d62728"/>
  <circle cx="732.71" cy="200.5" r="2.5" fill="#d62728"/>
  <circle cx="778.82" cy="200.5" r="2.5" fill="#d62728"/>
  <circle cx="824.94" cy="278.5" r="2.5" fill="#d62728"/>
  <polyline fill="none" stroke="#2ca02c" stroke-width="2.25" stroke-linejoin="round" stroke-linecap="round" points="87.06,356.5 133.18,122.5 179.29,239.5 225.41,317.5 271.53,356.5 317.65,317.5 363.76,83.5 409.88,317.5 456,317.5 502.12,200.5 548.24,122.5 594.35,83.5 640.47,278.5 686.59,200.5 732.71,278.5 778.82,83.5 824.94,317.5"/>
  <circle cx="87.06" cy="356.5" r="2.5" fill="#2ca02c"/>
  <circle cx="133.18" cy="122.5" r="2.5" fill="#2ca02c"/>
  <circle cx="179.29" cy="239.5" r="2.5" fill="#2ca02c"/>
  <circle cx="225.41" cy="317.5" r="2.5" fill="#2ca02c"/>
  <circle cx="271.53" cy="356.5" r="2.5" fill="#2ca02c"/>
  <circle cx="317.65" cy="317.5" r="2.5" fill="#2ca02c"/>
  <circle cx="363.76" cy="83.5" r="2.5" fill="#2ca02c"/>
  <circle cx="409.88" cy="317.5" r="2.5" fill="#2ca02c"/>
  <circle cx="456" cy="317.5" r="2.5" fill="#2ca02c"/>
  <circle cx="502.12" cy="200.5" r="2.5" fill="#2ca02c"/>
  <circle cx="548.24" cy="122.5" r="2.5" fill="#2ca02c"/>
  <circle cx="594.35" cy="83.5" r="2.5" fill="#2ca02c"/>
  <circle cx="640.47" cy="278.5" r="2.5" fill="#2ca02c"/>
  <circle cx="686.59" cy="200.5" r="2.5" fill="#2ca02c"/>
  <circle cx="732.71" cy="278.5" r="2.5" fill="#2ca02c"/>
  <circle cx="778.82" cy="83.5" r="2.5" fill="#2ca02c"/>
  <circle cx="824.94" cy="317.5" r="2.5" fill="#2ca02c"/>
  <polyline fill="none" stroke="#ff7f0e" stroke-width="2.25" stroke-linejoin="round" stroke-linecap="round" points="87.06,122.5 133.18,239.5 179.29,317.5 225.41,122.5 271.53,161.5 317.65,83.5 363.76,278.5 409.88,239.5 456,122.5 502.12,239.5 548.24,356.5 594.35,278.5 640.47,317.5 686.59,122.5 732.71,83.5 778.82,122.5 824.94,83.5"/>
  <circle cx="87.06" cy="122.5" r="2.5" fill="#ff7f0e"/>
  <circle cx="133.18" cy="239.5" r="2.5" fill="#ff7f0e"/>
  <circle cx="179.29" cy="317.5" r="2.5" fill="#ff7f0e"/>
  <circle cx="225.41" cy="122.5" r="2.5" fill="#ff7f0e"/>
  <circle cx="271.53" cy="161.5" r="2.5" fill="#ff7f0e"/>
  <circle cx="317.65" cy="83.5" r="2.5" fill="#ff7f0e"/>
  <circle cx="363.76" cy="278.5" r="2.5" fill="#ff7f0e"/>
  <circle cx="409.88" cy="239.5" r="2.5" fill="#ff7f0e"/>
  <circle cx="456" cy="122.5" r="2.5" fill="#ff7f0e"/>
  <circle cx="502.12" cy="239.5" r="2.5" fill="#ff7f0e"/>
  <circle cx="548.24" cy="356.5" r="2.5" fill="#ff7f0e"/>
  <circle cx="594.35" cy="278.5" r="2.5" fill="#ff7f0e"/>
  <circle cx="640.47" cy="317.5" r="2.5" fill="#ff7f0e"/>
  <circle cx="686.59" cy="122.5" r="2.5" fill="#ff7f0e"/>
  <circle cx="732.71" cy="83.5" r="2.5" fill="#ff7f0e"/>
  <circle cx="778.82" cy="122.5" r="2.5" fill="#ff7f0e"/>
  <circle cx="824.94" cy="83.5" r="2.5" fill="#ff7f0e"/>
  <polyline fill="none" stroke="#9467bd" stroke-width="2.25" stroke-linejoin="round" stroke-linecap="round" points="87.06,161.5 133.18,161.5 179.29,83.5 225.41,239.5 271.53,278.5 317.65,278.5 363.76,317.5 409.88,278.5 456,83.5 502.12,122.5 548.24,83.5 594.35,122.5 640.47,161.5 686.59,83.5 732.71,161.5 778.82,161.5 824.94,200.5"/>
  <circle cx="87.06" cy="161.5" r="2.5" fill="#9467bd"/>
  <circle cx="133.18" cy="161.5" r="2.5" fill="#9467bd"/>
  <circle cx="179.29" cy="83.5" r="2.5" fill="#9467bd"/>
  <circle cx="225.41" cy="239.5" r="2.5" fill="#9467bd"/>
  <circle cx="271.53" cy="278.5" r="2.5" fill="#9467bd"/>
  <circle cx="317.65" cy="278.5" r="2.5" fill="#9467bd"/>
  <circle cx="363.76" cy="317.5" r="2.5" fill="#9467bd"/>
  <circle cx="409.88" cy="278.5" r="2.5" fill="#9467bd"/>
  <circle cx="456" cy="83.5" r="2.5" fill="#9467bd"/>
  <circle cx="502.12" cy="122.5" r="2.5" fill="#9467bd"/>
  <circle cx="548.24" cy="83.5" r="2.5" fill="#9467bd"/>
  <circle cx="594.35" cy="122.5" r="2.5" fill="#9467bd"/>
  <circle cx="640.47" cy="161.5" r="2.5" fill="#9467bd"/>
  <circle cx="686.59" cy="83.5" r="2.5" fill="#9467bd"/>
  <circle cx="732.71" cy="161.5" r="2.5" fill="#9467bd"/>
  <circle cx="778.82" cy="161.5" r="2.5" fill="#9467bd"/>
  <circle cx="824.94" cy="200.5" r="2.5" fill="#9467bd"/>
  <polyline fill="none" stroke="#8c564b" stroke-width="2.25" stroke-linejoin="round" stroke-linecap="round" points="87.06,239.5 133.18,200.5 179.29,356.5 225.41,356.5 271.53,83.5 317.65,239.5 363.76,161.5 409.88,83.5 456,278.5 502.12,278.5 548.24,200.5 594.35,317.5 640.47,83.5 686.59,317.5 732.71,122.5 778.82,278.5 824.94,122.5"/>
  <circle cx="87.06" cy="239.5" r="2.5" fill="#8c564b"/>
  <circle cx="133.18" cy="200.5" r="2.5" fill="#8c564b"/>
  <circle cx="179.29" cy="356.5" r="2.5" fill="#8c564b"/>
  <circle cx="225.41" cy="356.5" r="2.5" fill="#8c564b"/>
  <circle cx="271.53" cy="83.5" r="2.5" fill="#8c564b"/>
  <circle cx="317.65" cy="239.5" r="2.5" fill="#8c564b"/>
  <circle cx="363.76" cy="161.5" r="2.5" fill="#8c564b"/>
  <circle cx="409.88" cy="83.5" r="2.5" fill="#8c564b"/>
  <circle cx="456" cy="278.5" r="2.5" fill="#8c564b"/>
  <circle cx="502.12" cy="278.5" r="2.5" fill="#8c564b"/>
  <circle cx="548.24" cy="200.5" r="2.5" fill="#8c564b"/>
  <circle cx="594.35" cy="317.5" r="2.5" fill="#8c564b"/>
  <circle cx="640.47" cy="83.5" r="2.5" fill="#8c564b"/>
  <circle cx="686.59" cy="317.5" r="2.5" fill="#8c564b"/>
  <circle cx="732.71" cy="122.5" r="2.5" fill="#8c564b"/>
  <circle cx="778.82" cy="278.5" r="2.5" fill="#8c564b"/>
  <circle cx="824.94" cy="122.5" r="2.5" fill="#8c564b"/>
  <polyline fill="none" stroke="#17becf" stroke-width="2.25" stroke-linejoin="round" stroke-linecap="round" points="87.06,200.5 133.18,83.5 179.29,161.5 225.41,83.5 271.53,122.5 317.65,200.5 363.76,122.5 409.88,122.5 456,239.5 502.12,161.5 548.24,239.5 594.35,200.5 640.47,122.5 686.59,161.5 732.71,239.5 778.82,239.5 824.94,161.5"/>
  <circle cx="87.06" cy="200.5" r="2.5" fill="#17becf"/>
  <circle cx="133.18" cy="83.5" r="2.5" fill="#17becf"/>
  <circle cx="179.29" cy="161.5" r="2.5" fill="#17becf"/>
  <circle cx="225.41" cy="83.5" r="2.5" fill="#17becf"/>
  <circle cx="271.53" cy="122.5" r="2.5" fill="#17becf"/>
  <circle cx="317.65" cy="200.5" r="2.5" fill="#17becf"/>
  <circle cx="363.76" cy="122.5" r="2.5" fill="#17becf"/>
  <circle cx="409.88" cy="122.5" r="2.5" fill="#17becf"/>
  <circle cx="456" cy="239.5" r="2.5" fill="#17becf"/>
  <circle cx="502.12" cy="161.5" r="2.5" fill="#17becf"/>
  <circle cx="548.24" cy="239.5" r="2.5" fill="#17becf"/>
  <circle cx="594.35" cy="200.5" r="2.5" fill="#17becf"/>
  <circle cx="640.47" cy="122.5" r="2.5" fill="#17becf"/>
  <circle cx="686.59" cy="161.5" r="2.5" fill="#17becf"/>
  <circle cx="732.71" cy="239.5" r="2.5" fill="#17becf"/>
  <circle cx="778.82" cy="239.5" r="2.5" fill="#17becf"/>
  <circle cx="824.94" cy="161.5" r="2.5" fill="#17becf"/>
  <polyline fill="none" stroke="#e377c2" stroke-width="2.25" stroke-linejoin="round" stroke-linecap="round" points="87.06,317.5 133.18,317.5 179.29,278.5 225.41,161.5 271.53,239.5 317.65,161.5 363.76,239.5 409.88,356.5 456,200.5 502.12,356.5 548.24,161.5 594.35,161.5 640.47,356.5 686.59,356.5 732.71,356.5 778.82,356.5 824.94,356.5"/>
  <circle cx="87.06" cy="317.5" r="2.5" fill="#e377c2"/>
  <circle cx="133.18" cy="317.5" r="2.5" fill="#e377c2"/>
  <circle cx="179.29" cy="278.5" r="2.5" fill="#e377c2"/>
  <circle cx="225.41" cy="161.5" r="2.5" fill="#e377c2"/>
  <circle cx="271.53" cy="239.5" r="2.5" fill="#e377c2"/>
  <circle cx="317.65" cy="161.5" r="2.5" fill="#e377c2"/>
  <circle cx="363.76" cy="239.5" r="2.5" fill="#e377c2"/>
  <circle cx="409.88" cy="356.5" r="2.5" fill="#e377c2"/>
  <circle cx="456" cy="200.5" r="2.5" fill="#e377c2"/>
  <circle cx="502.12" cy="356.5" r="2.5" fill="#e377c2"/>
  <circle cx="548.24" cy="161.5" r="2.5" fill="#e377c2"/>
  <circle cx="594.35" cy="161.5" r="2.5" fill="#e377c2"/>
  <circle cx="640.47" cy="356.5" r="2.5" fill="#e377c2"/>
  <circle cx="686.59" cy="356.5" r="2.5" fill="#e377c2"/>
  <circle cx="732.71" cy="356.5" r="2.5" fill="#e377c2"/>
  <circle cx="778.82" cy="356.5" r="2.5" fill="#e377c2"/>
  <circle cx="824.94" cy="356.5" r="2.5" fill="#e377c2"/>
  <rect x="32" y="452" width="14" height="14" fill="#1f77b4"/>
  <text x="52" y="464" fill="#222">Rob — Unstoppable Farce</text>
  <rect x="236" y="452" width="14" height="14" fill="#d62728"/>
  <text x="256" y="464" fill="#222">Devin — Amon Another level </text>
  <rect x="440" y="452" width="14" height="14" fill="#2ca02c"/>
  <text x="460" y="464" fill="#222">Michael — Disappointment</text>
  <rect x="644" y="452" width="14" height="14" fill="#ff7f0e"/>
  <text x="664" y="464" fill="#222">Jake — Seasonal Depression</text>
  <rect x="32" y="480" width="14" height="14" fill="#9467bd"/>
  <text x="52" y="492" fill="#222">Dave — He hate me</text>
  <rect x="236" y="480" width="14" height="14" fill="#8c564b"/>
  <text x="256" y="492" fill="#222">Eric — Sanders Boutte on Sunday</text>
  <rect x="440" y="480" width="14" height="14" fill="#17becf"/>
  <text x="460" y="492" fill="#222">Brian — First in and First Out?</text>
  <rect x="644" y="480" width="14" height="14" fill="#e377c2"/>
  <text x="664" y="492" fill="#222">Dakota — BearDown</text>
</svg>
